<svg version="1.1" id="Layer_1" xmlns="http://www.w3.org/2000/svg" xmlns:xlink="http://www.w3.org/1999/xlink" x="0px" y="0px"
	 viewBox="0 0 23.4 20.5" style="enable-background:new 0 0 23.4 20.5;" xml:space="preserve" width='20' height='15'>
<path fill="#ee6d08" d="M3.6,14.9c0,0,1.7-2.3,2.7-3.5c1.2-1.3,2.6-2.4,5-2.3c1.9,0.1,5.3,2.8,6.4,6.3c1.2,3.5-0.5,4.5-1.7,4.5
	s-3.6-0.9-5.4-0.8c-2,0.1-3.6,1-4.8,0.8C4.7,19.7,1.6,18.2,3.6,14.9z"/>
<ellipse transform="matrix(0.9459 -0.3243 0.3243 0.9459 -2.3378 1.3536)" fill="#ee6d08" cx="2.9" cy="7.7" rx="2.2" ry="2.6"/>
<ellipse transform="matrix(0.5893 -0.8079 0.8079 0.5893 -0.4237 20.9669)" fill="#ee6d08" cx="20.4" cy="10.9" rx="2.6" ry="2.2"/>
<ellipse transform="matrix(0.4526 -0.8917 0.8917 0.4526 4.2218 17.1863)" fill="#ee6d08" cx="16.1" cy="5.2" rx="2.8" ry="2.5"/>
<ellipse transform="matrix(0.9943 -0.1063 0.1063 0.9943 -0.3594 0.9917)" fill="#ee6d08" cx="9.1" cy="3.9" rx="2.8" ry="3.2"/>
</svg>
